<svg width="24" height="25" viewBox="0 0 24 25" fill="none" xmlns="http://www.w3.org/2000/svg">
<path fill-rule="evenodd" clip-rule="evenodd" d="M17.104 7.43489H19.9835C21.0872 7.43489 21.9819 8.32542 21.9819 9.42395V11.413C21.9819 12.2484 21.4644 12.9636 20.7312 13.2582C20.7346 13.3057 20.7363 13.3537 20.7363 13.4021C20.7363 13.5472 20.7203 13.6919 20.6887 13.8336L19.1345 20.7953C18.9313 21.7054 18.1203 22.3529 17.1837 22.3529H6.79671C5.86009 22.3529 5.04914 21.7054 4.84596 20.7953L3.2917 13.8336C3.24844 13.6398 3.23517 13.4464 3.24883 13.258C2.51578 12.9633 1.99854 12.2483 1.99854 11.413V9.42395C1.99854 8.32542 2.89322 7.43489 3.99687 7.43489H6.87644L9.09819 3.01199C9.34497 2.52071 9.94515 2.32158 10.4387 2.56722C10.9323 2.81286 11.1323 3.41025 10.8856 3.90153L9.11064 7.43489H14.8698L13.0949 3.90153C12.8481 3.41025 13.0481 2.81286 13.5417 2.56722C14.0353 2.32158 14.6354 2.52071 14.8822 3.01199L17.104 7.43489ZM17.4329 10.3135C17.7828 10.1394 17.9851 9.78849 17.9854 9.42395H19.9835V11.413H3.99687V9.42395H5.99499C5.99527 9.78849 6.19766 10.1394 6.54753 10.3135C7.0411 10.5591 7.64127 10.36 7.88805 9.86872L8.11147 9.42395H15.8689L16.0924 9.86872C16.3391 10.36 16.9393 10.5591 17.4329 10.3135ZM5.24245 13.4021H18.738L17.1837 20.3638H6.79671L5.24245 13.4021Z" fill="#CFCFCF"/>
</svg>
