<svg width="27" height="16" viewBox="0 0 27 16" fill="none" xmlns="http://www.w3.org/2000/svg">
<path fill-rule="evenodd" clip-rule="evenodd" d="M0.915039 0.999969C0.915039 0.447685 1.36275 -3.05176e-05 1.91504 -3.05176e-05H25.8934C26.4457 -3.05176e-05 26.8934 0.447685 26.8934 0.999969C26.8934 1.55225 26.4457 1.99997 25.8934 1.99997H1.91504C1.36276 1.99997 0.915039 1.55225 0.915039 0.999969ZM0.915039 7.99997C0.915039 7.44768 1.36275 6.99997 1.91504 6.99997H25.8934C26.4457 6.99997 26.8934 7.44768 26.8934 7.99997C26.8934 8.55225 26.4457 8.99997 25.8934 8.99997H1.91504C1.36276 8.99997 0.915039 8.55225 0.915039 7.99997ZM1.91504 14C1.36275 14 0.915039 14.4477 0.915039 15C0.915039 15.5523 1.36276 16 1.91504 16H25.8934C26.4457 16 26.8934 15.5523 26.8934 15C26.8934 14.4477 26.4457 14 25.8934 14H1.91504Z" fill="#E8E8E8"/>
</svg>
