<svg width="60" height="71" viewBox="0 0 60 71" fill="none" xmlns="http://www.w3.org/2000/svg">
<path d="M59.8533 66.1464C60.0486 66.3417 60.0487 66.6584 59.8535 66.8537L56.6737 70.0366C56.4786 70.2319 56.1621 70.2319 55.9668 70.0366C55.7715 69.8413 55.7714 69.5246 55.9665 69.3293L58.7931 66.5L55.9644 63.6707C55.7692 63.4754 55.7691 63.1587 55.9642 62.9634C56.1593 62.7681 56.4758 62.7681 56.6711 62.9634L59.8533 66.1464ZM0.999788 0.000183604C0.999807 34.4104 10.861 50.8341 22.9834 58.7055C35.1557 66.6093 49.7401 65.9999 59.4998 65.9999L59.5001 67.0002C49.8238 67.0002 34.9081 67.6408 22.4395 59.5445C9.92096 51.416 0.000111994 34.5896 9.02412e-05 -0.000183717L0.999788 0.000183604Z" fill="white"/>
</svg>
